<?xml version="1.0" encoding="utf-8"?>
<!-- Generator: Adobe Illustrator 22.0.1, SVG Export Plug-In . SVG Version: 6.00 Build 0)  -->
<svg version="1.1"
	 id="svg2" xmlns:cc="http://creativecommons.org/ns#" xmlns:dc="http://purl.org/dc/elements/1.1/" xmlns:inkscape="http://www.inkscape.org/namespaces/inkscape" xmlns:rdf="http://www.w3.org/1999/02/22-rdf-syntax-ns#" xmlns:sodipodi="http://sodipodi.sourceforge.net/DTD/sodipodi-0.dtd" xmlns:svg="http://www.w3.org/2000/svg"
	 xmlns="http://www.w3.org/2000/svg" xmlns:xlink="http://www.w3.org/1999/xlink" x="0px" y="0px" viewBox="0 0 500 500"
	 style="enable-background:new 0 0 500 500;" xml:space="preserve">
<style type="text/css">
	.st0{fill:#FFFFFF;}
	.st1{fill:#8DB9CC;}
	.st2{fill:#0077B5;}
</style>
<g id="layer1-9" transform="translate(-549.00515,80.294372)">
</g>
<g id="layer1-6" transform="translate(-575.71429,39.999999)">
</g>
<g id="layer1-92" transform="matrix(0.99533037,0,0,0.99716768,619.96997,-73.128637)">
	<g id="layer1-9-7" transform="translate(-1068,-236)">
	</g>
</g>
<g>
	<path class="st0" d="M468.1,500H31.9C14.3,500,0,485.7,0,468.1V31.9C0,14.3,14.3,0,31.9,0h436.1C485.7,0,500,14.3,500,31.9v436.1
		C500,485.7,485.7,500,468.1,500z"/>
	<path id="path3003" class="st1" d="M500,500H126.7l-59.2-59.2l54.6-253.3l-48.9-48.9l65.1-65.4l116.4,116.4l15-3.1l17.3,17.3
		l125.5-1.7l87.5,87.5V500z"/>
	<path id="rect2989-1-7" class="st2" d="M106,60c-25.4,0-46,20.6-46,46.1c0,25.5,20.6,46.1,46,46.1s46-20.6,46-46.1
		C152.1,80.6,131.5,60,106,60z M347.1,180.1L347.1,180.1c-5.2,0-10.2,0.2-16.8,0.6c-14.5,0.7-48.3,16.4-60.7,41.5
		c0-10.9,0.1-20.9,0.1-35.8c-14.8,0-34.2,0.1-74.8,0.1c0,45.5-0.5,206.6-0.5,253.5H273c0-27.8,0.4-97.8,0.4-141.7
		c0-14.7,8.9-48.8,45.5-48.8c33.2,0,42.5,28,42.5,48.8c0,45.7-0.3,110.4-0.3,141.7H440c0-30.6,0.3-113.7-0.7-166.2
		c-1.1-63.7-39.8-90.9-74.5-93C357.6,180.4,352.3,180.1,347.1,180.1z M66.6,187.5v252.4h78.7V187.5H66.6z"/>
</g>
</svg>
